<?xml version="1.0" standalone="no"?>
<!DOCTYPE svg PUBLIC "-//W3C//DTD SVG 20010904//EN"
 "http://www.w3.org/TR/2001/REC-SVG-20010904/DTD/svg10.dtd">
<svg version="1.0" xmlns="http://www.w3.org/2000/svg"
 width="158.000000pt" height="161.000000pt" viewBox="0 0 158.000000 161.000000"
 preserveAspectRatio="xMidYMid meet">

<g transform="translate(0.000000,161.000000) scale(0.100000,-0.100000)"
fill="#000000" stroke="none">
<path d="M655 1454 c-71 -42 -213 -123 -315 -181 -102 -58 -197 -115 -212
-125 l-28 -19 0 -347 0 -347 288 -167 c158 -91 314 -181 348 -199 l60 -33 330
188 c181 104 337 196 347 204 16 14 25 72 11 72 -3 0 -158 -88 -345 -195 -186
-107 -342 -195 -346 -195 -4 0 -89 47 -188 104 l-180 104 -3 51 c-2 35 1 51 9
51 7 0 90 -45 185 -100 96 -55 176 -100 178 -100 4 0 121 66 536 304 163 94
160 91 160 127 0 17 -5 29 -12 29 -7 0 -51 -23 -98 -51 -76 -46 -388 -226
-531 -307 l-56 -32 -169 96 c-93 53 -177 103 -186 112 -19 16 -26 96 -10 106
4 3 85 -40 180 -95 94 -54 178 -99 186 -99 8 0 43 16 78 36 34 20 79 45 98 56
79 45 101 61 93 69 -8 8 -303 178 -515 298 -65 36 -118 71 -118 78 0 12 60 53
78 53 6 0 35 -14 64 -32 29 -17 114 -66 188 -108 74 -42 191 -109 259 -149
l124 -71 136 76 c201 114 207 118 206 147 0 14 -3 28 -6 32 -4 3 -31 -8 -60
-26 -162 -96 -264 -152 -275 -152 -11 0 -357 194 -482 271 -40 24 -71 50 -69
56 2 6 20 20 40 31 l37 20 38 -21 c20 -11 80 -45 132 -76 241 -140 291 -168
301 -168 19 0 328 176 341 194 12 17 9 56 -3 56 -7 0 -60 -28 -118 -62 -58
-33 -130 -75 -160 -91 l-53 -30 -47 22 c-25 13 -77 42 -116 65 -38 24 -107 64
-152 90 -46 26 -83 53 -83 59 0 14 55 47 77 47 9 0 83 -39 165 -86 l149 -87
52 29 c121 65 211 120 214 129 2 6 -45 39 -104 74 -232 137 -502 291 -510 290
-4 0 -66 -34 -138 -75z"/>
</g>
</svg>
